<svg width="352" height="75" viewBox="0 0 352 75" fill="none" xmlns="http://www.w3.org/2000/svg">
<rect x="7" y="5" width="343" height="63.816" rx="14" stroke="#FE0000" stroke-width="4"/>
<g filter="url(#filter0_d_199_25)">
<path d="M33.4 51.8482C31.32 51.8482 29.48 51.4215 27.88 50.5682C26.3067 49.7149 25.08 48.5282 24.2 47.0082C23.32 45.4615 22.88 43.6882 22.88 41.6882V33.1282C22.88 31.1549 23.32 29.4082 24.2 27.8882C25.08 26.3682 26.3067 25.1949 27.88 24.3682C29.48 23.5149 31.32 23.0882 33.4 23.0882C35.5067 23.0882 37.3467 23.5149 38.92 24.3682C40.52 25.1949 41.76 26.3682 42.64 27.8882C43.52 29.4082 43.96 31.1549 43.96 33.1282V41.6882C43.96 43.6882 43.52 45.4615 42.64 47.0082C41.76 48.5549 40.52 49.7549 38.92 50.6082C37.3467 51.4349 35.5067 51.8482 33.4 51.8482ZM33.4 47.0082C34.8667 47.0082 36.0533 46.5415 36.96 45.6082C37.8667 44.6749 38.32 43.4349 38.32 41.8882V33.0882C38.32 31.5415 37.8667 30.3015 36.96 29.3682C36.08 28.4082 34.8933 27.9282 33.4 27.9282C31.9333 27.9282 30.7467 28.4082 29.84 29.3682C28.96 30.3015 28.52 31.5415 28.52 33.0882V41.8882C28.52 43.4349 28.96 44.6749 29.84 45.6082C30.7467 46.5415 31.9333 47.0082 33.4 47.0082ZM64.3638 23.8882C64.3638 23.7549 64.4038 23.6482 64.4838 23.5682C64.5904 23.4615 64.7104 23.4082 64.8438 23.4082H69.5238C69.6571 23.4082 69.7638 23.4615 69.8438 23.5682C69.9504 23.6482 70.0038 23.7549 70.0038 23.8882V50.9282C70.0038 51.0615 69.9504 51.1815 69.8438 51.2882C69.7638 51.3682 69.6571 51.4082 69.5238 51.4082H65.0038C64.7371 51.4082 64.5504 51.3015 64.4438 51.0882L54.0838 33.9682C54.0304 33.8882 53.9771 33.8615 53.9238 33.8882C53.8704 33.8882 53.8438 33.9415 53.8438 34.0482L53.9238 50.9282C53.9238 51.0615 53.8704 51.1815 53.7638 51.2882C53.6838 51.3682 53.5771 51.4082 53.4438 51.4082H48.7638C48.6304 51.4082 48.5104 51.3682 48.4038 51.2882C48.3238 51.1815 48.2838 51.0615 48.2838 50.9282V23.8882C48.2838 23.7549 48.3238 23.6482 48.4038 23.5682C48.5104 23.4615 48.6304 23.4082 48.7638 23.4082H53.2838C53.5504 23.4082 53.7371 23.5149 53.8438 23.7282L64.1638 40.7682C64.2171 40.8482 64.2704 40.8882 64.3238 40.8882C64.3771 40.8615 64.4038 40.7949 64.4038 40.6882L64.3638 23.8882ZM75.3653 51.4082C75.232 51.4082 75.112 51.3682 75.0053 51.2882C74.9253 51.1815 74.8853 51.0615 74.8853 50.9282V23.8882C74.8853 23.7549 74.9253 23.6482 75.0053 23.5682C75.112 23.4615 75.232 23.4082 75.3653 23.4082H80.0453C80.1786 23.4082 80.2853 23.4615 80.3653 23.5682C80.472 23.6482 80.5253 23.7549 80.5253 23.8882V46.3682C80.5253 46.5015 80.592 46.5682 80.7253 46.5682H93.8053C93.9386 46.5682 94.0453 46.6215 94.1253 46.7282C94.232 46.8082 94.2853 46.9149 94.2853 47.0482V50.9282C94.2853 51.0615 94.232 51.1815 94.1253 51.2882C94.0453 51.3682 93.9386 51.4082 93.8053 51.4082H75.3653ZM98.2559 51.4082C98.1226 51.4082 98.0026 51.3682 97.8959 51.2882C97.8159 51.1815 97.7759 51.0615 97.7759 50.9282V23.8882C97.7759 23.7549 97.8159 23.6482 97.8959 23.5682C98.0026 23.4615 98.1226 23.4082 98.2559 23.4082H102.936C103.069 23.4082 103.176 23.4615 103.256 23.5682C103.363 23.6482 103.416 23.7549 103.416 23.8882V50.9282C103.416 51.0615 103.363 51.1815 103.256 51.2882C103.176 51.3682 103.069 51.4082 102.936 51.4082H98.2559ZM124.364 23.8882C124.364 23.7549 124.404 23.6482 124.484 23.5682C124.59 23.4615 124.71 23.4082 124.844 23.4082H129.524C129.657 23.4082 129.764 23.4615 129.844 23.5682C129.95 23.6482 130.004 23.7549 130.004 23.8882V50.9282C130.004 51.0615 129.95 51.1815 129.844 51.2882C129.764 51.3682 129.657 51.4082 129.524 51.4082H125.004C124.737 51.4082 124.55 51.3015 124.444 51.0882L114.084 33.9682C114.03 33.8882 113.977 33.8615 113.924 33.8882C113.87 33.8882 113.844 33.9415 113.844 34.0482L113.924 50.9282C113.924 51.0615 113.87 51.1815 113.764 51.2882C113.684 51.3682 113.577 51.4082 113.444 51.4082H108.764C108.63 51.4082 108.51 51.3682 108.404 51.2882C108.324 51.1815 108.284 51.0615 108.284 50.9282V23.8882C108.284 23.7549 108.324 23.6482 108.404 23.5682C108.51 23.4615 108.63 23.4082 108.764 23.4082H113.284C113.55 23.4082 113.737 23.5149 113.844 23.7282L124.164 40.7682C124.217 40.8482 124.27 40.8882 124.324 40.8882C124.377 40.8615 124.404 40.7949 124.404 40.6882L124.364 23.8882ZM154.091 27.7682C154.091 27.9015 154.038 28.0215 153.931 28.1282C153.851 28.2082 153.744 28.2482 153.611 28.2482H140.491C140.358 28.2482 140.291 28.3149 140.291 28.4482V34.6482C140.291 34.7815 140.358 34.8482 140.491 34.8482H149.091C149.224 34.8482 149.331 34.9015 149.411 35.0082C149.518 35.0882 149.571 35.1949 149.571 35.3282V39.2082C149.571 39.3415 149.518 39.4615 149.411 39.5682C149.331 39.6482 149.224 39.6882 149.091 39.6882H140.491C140.358 39.6882 140.291 39.7549 140.291 39.8882V46.3682C140.291 46.5015 140.358 46.5682 140.491 46.5682H153.611C153.744 46.5682 153.851 46.6215 153.931 46.7282C154.038 46.8082 154.091 46.9149 154.091 47.0482V50.9282C154.091 51.0615 154.038 51.1815 153.931 51.2882C153.851 51.3682 153.744 51.4082 153.611 51.4082H135.131C134.998 51.4082 134.878 51.3682 134.771 51.2882C134.691 51.1815 134.651 51.0615 134.651 50.9282V23.8882C134.651 23.7549 134.691 23.6482 134.771 23.5682C134.878 23.4615 134.998 23.4082 135.131 23.4082H153.611C153.744 23.4082 153.851 23.4615 153.931 23.5682C154.038 23.6482 154.091 23.7549 154.091 23.8882V27.7682ZM175.618 51.7282C173.485 51.7282 171.618 51.3949 170.018 50.7282C168.418 50.0349 167.178 49.0615 166.298 47.8082C165.445 46.5282 165.018 45.0482 165.018 43.3682V42.4882C165.018 42.3549 165.058 42.2482 165.138 42.1682C165.245 42.0615 165.365 42.0082 165.498 42.0082H170.058C170.191 42.0082 170.298 42.0615 170.378 42.1682C170.485 42.2482 170.538 42.3549 170.538 42.4882V43.0882C170.538 44.1549 171.031 45.0615 172.018 45.8082C173.005 46.5282 174.338 46.8882 176.018 46.8882C177.431 46.8882 178.485 46.5949 179.178 46.0082C179.871 45.3949 180.218 44.6482 180.218 43.7682C180.218 43.1282 180.005 42.5949 179.578 42.1682C179.151 41.7149 178.565 41.3282 177.818 41.0082C177.098 40.6615 175.938 40.1949 174.338 39.6082C172.551 38.9949 171.031 38.3682 169.778 37.7282C168.551 37.0882 167.511 36.2215 166.658 35.1282C165.831 34.0082 165.418 32.6349 165.418 31.0082C165.418 29.4082 165.831 28.0082 166.658 26.8082C167.485 25.6082 168.631 24.6882 170.098 24.0482C171.565 23.4082 173.258 23.0882 175.178 23.0882C177.205 23.0882 179.005 23.4482 180.578 24.1682C182.178 24.8882 183.418 25.9015 184.298 27.2082C185.205 28.4882 185.658 29.9815 185.658 31.6882V32.2882C185.658 32.4215 185.605 32.5415 185.498 32.6482C185.418 32.7282 185.311 32.7682 185.178 32.7682H180.578C180.445 32.7682 180.325 32.7282 180.218 32.6482C180.138 32.5415 180.098 32.4215 180.098 32.2882V31.9682C180.098 30.8482 179.631 29.9015 178.698 29.1282C177.791 28.3282 176.538 27.9282 174.938 27.9282C173.685 27.9282 172.698 28.1949 171.978 28.7282C171.285 29.2615 170.938 29.9949 170.938 30.9282C170.938 31.5949 171.138 32.1549 171.538 32.6082C171.965 33.0615 172.578 33.4749 173.378 33.8482C174.205 34.1949 175.471 34.6749 177.178 35.2882C179.071 35.9815 180.551 36.5949 181.618 37.1282C182.711 37.6615 183.685 38.4615 184.538 39.5282C185.418 40.5682 185.858 41.9282 185.858 43.6082C185.858 46.1149 184.938 48.1015 183.098 49.5682C181.258 51.0082 178.765 51.7282 175.618 51.7282ZM204.687 23.8882C204.687 23.7549 204.727 23.6482 204.807 23.5682C204.914 23.4615 205.034 23.4082 205.167 23.4082H209.847C209.981 23.4082 210.087 23.4615 210.167 23.5682C210.274 23.6482 210.327 23.7549 210.327 23.8882V50.9282C210.327 51.0615 210.274 51.1815 210.167 51.2882C210.087 51.3682 209.981 51.4082 209.847 51.4082H205.167C205.034 51.4082 204.914 51.3682 204.807 51.2882C204.727 51.1815 204.687 51.0615 204.687 50.9282V39.8882C204.687 39.7549 204.621 39.6882 204.487 39.6882H195.647C195.514 39.6882 195.447 39.7549 195.447 39.8882V50.9282C195.447 51.0615 195.394 51.1815 195.287 51.2882C195.207 51.3682 195.101 51.4082 194.967 51.4082H190.287C190.154 51.4082 190.034 51.3682 189.927 51.2882C189.847 51.1815 189.807 51.0615 189.807 50.9282V23.8882C189.807 23.7549 189.847 23.6482 189.927 23.5682C190.034 23.4615 190.154 23.4082 190.287 23.4082H194.967C195.101 23.4082 195.207 23.4615 195.287 23.5682C195.394 23.6482 195.447 23.7549 195.447 23.8882V34.6482C195.447 34.7815 195.514 34.8482 195.647 34.8482H204.487C204.621 34.8482 204.687 34.7815 204.687 34.6482V23.8882ZM224.884 51.8482C222.804 51.8482 220.964 51.4215 219.364 50.5682C217.791 49.7149 216.564 48.5282 215.684 47.0082C214.804 45.4615 214.364 43.6882 214.364 41.6882V33.1282C214.364 31.1549 214.804 29.4082 215.684 27.8882C216.564 26.3682 217.791 25.1949 219.364 24.3682C220.964 23.5149 222.804 23.0882 224.884 23.0882C226.991 23.0882 228.831 23.5149 230.404 24.3682C232.004 25.1949 233.244 26.3682 234.124 27.8882C235.004 29.4082 235.444 31.1549 235.444 33.1282V41.6882C235.444 43.6882 235.004 45.4615 234.124 47.0082C233.244 48.5549 232.004 49.7549 230.404 50.6082C228.831 51.4349 226.991 51.8482 224.884 51.8482ZM224.884 47.0082C226.351 47.0082 227.538 46.5415 228.444 45.6082C229.351 44.6749 229.804 43.4349 229.804 41.8882V33.0882C229.804 31.5415 229.351 30.3015 228.444 29.3682C227.564 28.4082 226.378 27.9282 224.884 27.9282C223.418 27.9282 222.231 28.4082 221.324 29.3682C220.444 30.3015 220.004 31.5415 220.004 33.0882V41.8882C220.004 43.4349 220.444 44.6749 221.324 45.6082C222.231 46.5415 223.418 47.0082 224.884 47.0082ZM251.328 23.3682C253.088 23.3682 254.635 23.7282 255.968 24.4482C257.301 25.1682 258.328 26.1949 259.048 27.5282C259.795 28.8349 260.168 30.3415 260.168 32.0482C260.168 33.7282 259.781 35.2082 259.008 36.4882C258.261 37.7682 257.195 38.7682 255.808 39.4882C254.448 40.1815 252.875 40.5282 251.088 40.5282H245.408C245.275 40.5282 245.208 40.5949 245.208 40.7282V50.9282C245.208 51.0615 245.155 51.1815 245.048 51.2882C244.968 51.3682 244.861 51.4082 244.728 51.4082H240.048C239.915 51.4082 239.795 51.3682 239.688 51.2882C239.608 51.1815 239.568 51.0615 239.568 50.9282V23.8482C239.568 23.7149 239.608 23.6082 239.688 23.5282C239.795 23.4215 239.915 23.3682 240.048 23.3682H251.328ZM250.488 36.0082C251.715 36.0082 252.701 35.6615 253.448 34.9682C254.195 34.2482 254.568 33.3149 254.568 32.1682C254.568 30.9949 254.195 30.0482 253.448 29.3282C252.701 28.6082 251.715 28.2482 250.488 28.2482H245.408C245.275 28.2482 245.208 28.3149 245.208 28.4482V35.8082C245.208 35.9415 245.275 36.0082 245.408 36.0082H250.488Z" fill="#FE0000"/>
</g>
<g filter="url(#filter1_d_199_25)">
<path d="M277.958 51.9567C276.568 52.3291 275.294 52.4378 274.135 52.2828C272.972 52.1104 271.994 51.6928 271.202 51.0299C270.422 50.3449 269.886 49.4552 269.593 48.3608L269.439 47.7875C269.416 47.7006 269.423 47.6241 269.462 47.558C269.512 47.4699 269.581 47.4142 269.668 47.391L272.639 46.595C272.726 46.5717 272.805 46.5878 272.875 46.6433C272.959 46.6768 273.012 46.737 273.035 46.8239L273.14 47.2148C273.326 47.9097 273.806 48.4142 274.579 48.7284C275.348 49.0252 276.279 49.027 277.374 48.7338C278.294 48.487 278.929 48.1121 279.279 47.6088C279.623 47.0882 279.719 46.5413 279.565 45.968C279.453 45.5511 279.221 45.2408 278.869 45.0374C278.512 44.8165 278.062 44.667 277.52 44.5889C276.99 44.4887 276.153 44.3872 275.008 44.2843C273.737 44.1966 272.638 44.0537 271.709 43.8555C270.799 43.6527 269.97 43.2696 269.223 42.7063C268.489 42.121 267.98 41.2984 267.696 40.2387C267.417 39.1963 267.442 38.2121 267.771 37.2861C268.1 36.36 268.686 35.5605 269.53 34.8875C270.374 34.2145 271.421 33.7105 272.672 33.3753C273.992 33.0215 275.228 32.9418 276.378 33.1363C277.546 33.326 278.531 33.7697 279.332 34.4674C280.147 35.143 280.703 36.0367 281 37.1486L281.105 37.5395C281.128 37.6263 281.115 37.7138 281.064 37.8019C281.026 37.868 280.963 37.9127 280.876 37.9359L277.88 38.7389C277.793 38.7622 277.707 38.7571 277.624 38.7236C277.553 38.6681 277.506 38.5969 277.483 38.51L277.427 38.3015C277.232 37.5719 276.762 37.0366 276.019 36.6957C275.289 36.3328 274.403 36.291 273.36 36.5703C272.544 36.7891 271.948 37.1351 271.572 37.6082C271.213 38.0767 271.115 38.615 271.278 39.223C271.394 39.6573 271.623 39.9872 271.962 40.2127C272.319 40.4336 272.791 40.5958 273.377 40.6994C273.976 40.7809 274.885 40.8725 276.104 40.9742C277.459 41.0953 278.53 41.2366 279.318 41.3978C280.124 41.5544 280.897 41.9057 281.639 42.4516C282.394 42.9756 282.918 43.7848 283.212 44.8792C283.649 46.5123 283.397 47.9671 282.454 49.2438C281.507 50.5031 280.008 51.4074 277.958 51.9567ZM293.711 47.8194C292.356 48.1825 291.083 48.2257 289.892 47.9491C288.718 47.6678 287.712 47.1088 286.873 46.2722C286.03 45.4182 285.433 44.3397 285.084 43.0368L283.59 37.4602C283.246 36.1746 283.227 34.9599 283.535 33.816C283.843 32.6722 284.438 31.6936 285.318 30.8804C286.212 30.0452 287.336 29.4461 288.691 29.083C290.063 28.7152 291.337 28.672 292.511 28.9533C293.697 29.2125 294.71 29.7605 295.548 30.5971C296.387 31.4337 296.979 32.4948 297.323 33.7804L298.817 39.357C299.166 40.66 299.189 41.8921 298.886 43.0533C298.583 44.2145 297.984 45.2128 297.091 46.048C296.21 46.8612 295.084 47.4516 293.711 47.8194ZM292.866 44.6663C293.822 44.4102 294.514 43.8991 294.941 43.1327C295.369 42.3664 295.448 41.4795 295.178 40.4719L293.642 34.7389C293.372 33.7313 292.86 33.0026 292.106 32.5528C291.366 32.081 290.509 31.9754 289.536 32.2361C288.58 32.4921 287.891 33.012 287.468 33.7957C287.058 34.5573 286.987 35.442 287.257 36.4496L288.794 42.1826C289.063 43.1902 289.567 43.9212 290.303 44.3756C291.056 44.8254 291.911 44.9223 292.866 44.6663ZM309.896 43.4826C308.541 43.8457 307.268 43.8889 306.077 43.6123C304.903 43.331 303.897 42.7721 303.058 41.9354C302.215 41.0814 301.618 40.003 301.269 38.7L299.775 33.1234C299.431 31.8378 299.412 30.6231 299.72 29.4793C300.028 28.3354 300.623 27.3569 301.503 26.5437C302.397 25.7084 303.521 25.1093 304.876 24.7462C306.248 24.3785 307.522 24.3352 308.696 24.6165C309.882 24.8758 310.895 25.4237 311.734 26.2603C312.572 27.097 313.164 28.1581 313.508 29.4436L315.002 35.0203C315.352 36.3232 315.374 37.5553 315.071 38.7165C314.768 39.8777 314.169 40.876 313.276 41.7112C312.395 42.5244 311.269 43.1149 309.896 43.4826ZM309.052 40.3295C310.007 40.0734 310.699 39.5623 311.126 38.796C311.554 38.0297 311.633 37.1427 311.363 36.1351L309.827 30.4021C309.557 29.3945 309.045 28.6658 308.292 28.216C307.551 27.7442 306.694 27.6387 305.721 27.8993C304.765 28.1554 304.076 28.6752 303.653 29.4589C303.243 30.2206 303.172 31.1052 303.442 32.1128L304.979 37.8458C305.249 38.8534 305.752 39.5844 306.488 40.0389C307.241 40.4886 308.096 40.5855 309.052 40.3295ZM325.188 19.8623C325.164 19.7754 325.172 19.6989 325.21 19.6329C325.261 19.5448 325.33 19.4891 325.417 19.4658L328.466 18.6488C328.552 18.6256 328.631 18.6417 328.702 18.6972C328.785 18.7307 328.839 18.7909 328.862 18.8778L333.582 36.4936C333.606 36.5805 333.592 36.668 333.541 36.7561C333.503 36.8222 333.44 36.8668 333.353 36.8901L330.409 37.6791C330.235 37.7257 330.095 37.6888 329.988 37.5684L320.25 28.2236C320.201 28.1808 320.162 28.1728 320.132 28.1995C320.097 28.2088 320.089 28.2482 320.108 28.3177L323.107 39.3006C323.13 39.3874 323.116 39.4749 323.065 39.563C323.027 39.6291 322.964 39.6738 322.878 39.6971L319.829 40.514C319.742 40.5373 319.657 40.5322 319.573 40.4987C319.502 40.4432 319.455 40.372 319.432 40.2851L314.712 22.6692C314.689 22.5824 314.696 22.5059 314.734 22.4398C314.785 22.3517 314.854 22.296 314.941 22.2727L317.886 21.4837C318.059 21.4372 318.2 21.4741 318.306 21.5944L328.004 30.8941C328.053 30.9369 328.095 30.9536 328.129 30.9443C328.159 30.9177 328.165 30.8696 328.146 30.8001L325.188 19.8623Z" fill="#FE0000"/>
</g>
<defs>
<filter id="filter0_d_199_25" x="0.0227413" y="0.231237" width="283.002" height="74.474" filterUnits="userSpaceOnUse" color-interpolation-filters="sRGB">
<feFlood flood-opacity="0" result="BackgroundImageFix"/>
<feColorMatrix in="SourceAlpha" type="matrix" values="0 0 0 0 0 0 0 0 0 0 0 0 0 0 0 0 0 0 127 0" result="hardAlpha"/>
<feOffset/>
<feGaussianBlur stdDeviation="11.4286"/>
<feComposite in2="hardAlpha" operator="out"/>
<feColorMatrix type="matrix" values="0 0 0 0 0.996078 0 0 0 0 0 0 0 0 0 0 0 0 0 1 0"/>
<feBlend mode="normal" in2="BackgroundImageFix" result="effect1_dropShadow_199_25"/>
<feBlend mode="normal" in="SourceGraphic" in2="effect1_dropShadow_199_25" result="shape"/>
</filter>
<filter id="filter1_d_199_25" x="250.637" y="2.94031" width="98.5222" height="66.3611" filterUnits="userSpaceOnUse" color-interpolation-filters="sRGB">
<feFlood flood-opacity="0" result="BackgroundImageFix"/>
<feColorMatrix in="SourceAlpha" type="matrix" values="0 0 0 0 0 0 0 0 0 0 0 0 0 0 0 0 0 0 127 0" result="hardAlpha"/>
<feOffset/>
<feGaussianBlur stdDeviation="7.70807"/>
<feComposite in2="hardAlpha" operator="out"/>
<feColorMatrix type="matrix" values="0 0 0 0 0.996078 0 0 0 0 0 0 0 0 0 0 0 0 0 1 0"/>
<feBlend mode="normal" in2="BackgroundImageFix" result="effect1_dropShadow_199_25"/>
<feBlend mode="normal" in="SourceGraphic" in2="effect1_dropShadow_199_25" result="shape"/>
</filter>
</defs>
</svg>
