<svg width="100" height="100" viewBox="0 0 100 100" fill="none" xmlns="http://www.w3.org/2000/svg">
<path fill-rule="evenodd" clip-rule="evenodd" d="M6.12308 6.12593C2.20249 10.0472 0 15.365 0 20.9099L0.0044171 79.0901C0.00441657 84.6342 2.2063 89.9514 6.12593 93.8725C10.0456 97.7936 15.362 99.9977 20.9064 100H79.0892C81.8352 100 84.5544 99.4592 87.0914 98.4083C89.6284 97.3575 91.9336 95.8173 93.8754 93.8756C95.8171 91.934 97.3574 89.6289 98.4083 87.092C99.4591 84.5551 100 81.836 100 79.0901V20.9099C100 15.3642 97.7969 10.0457 93.8754 6.12437C89.9538 2.203 84.6351 0 79.0892 0H20.9064C15.3613 0.00117129 10.0437 2.20469 6.12308 6.12593ZM29.816 66.2854L27.6825 59.6732C26.5605 56.2103 23.844 53.4894 20.3765 52.3675L13.764 50.2341C13.7152 50.2175 13.6728 50.1859 13.6427 50.144C13.6127 50.102 13.5966 50.0517 13.5966 50C13.5966 49.9484 13.6127 49.8981 13.6427 49.8561C13.6728 49.8141 13.7152 49.7826 13.764 49.7659L20.3765 47.6281C22.086 47.0776 23.64 46.1284 24.9104 44.8589C26.1807 43.5894 27.1309 42.036 27.6825 40.3269L29.8204 33.7147C29.8371 33.6659 29.8686 33.6234 29.9106 33.5934C29.9526 33.5634 30.0029 33.5472 30.0545 33.5472C30.1061 33.5472 30.1565 33.5634 30.1984 33.5934C30.2404 33.6234 30.272 33.6659 30.2886 33.7147L32.4265 40.3269C32.9767 42.0358 33.9253 43.5895 35.194 44.8597C36.4628 46.1299 38.0153 47.0803 39.7237 47.6325L46.3362 49.7659C46.385 49.7826 46.4274 49.8141 46.4575 49.8561C46.4875 49.8981 46.5036 49.9484 46.5036 50C46.5036 50.0517 46.4875 50.102 46.4575 50.144C46.4274 50.1859 46.385 50.2175 46.3362 50.2341L39.7237 52.3719C36.2562 53.4894 33.5397 56.2059 32.4221 59.6732L30.2842 66.2854C30.2135 66.5106 29.8911 66.5106 29.816 66.2854ZM69.7162 66.2854L67.5783 59.6732C66.4563 56.2103 63.7353 53.4894 60.2679 52.3675L53.6598 50.2341C53.6109 50.2175 53.5685 50.1859 53.5385 50.144C53.5085 50.102 53.4923 50.0517 53.4923 50C53.4923 49.9484 53.5085 49.8981 53.5385 49.8561C53.5685 49.8141 53.6109 49.7826 53.6598 49.7659L60.2723 47.6281C61.9809 47.077 63.5341 46.1275 64.8036 44.858C66.0731 43.5886 67.0226 42.0355 67.5738 40.3269L69.7117 33.7147C69.7284 33.6659 69.7599 33.6234 69.8019 33.5934C69.8439 33.5634 69.8942 33.5472 69.9459 33.5472C69.9975 33.5472 70.0478 33.5634 70.0898 33.5934C70.1318 33.6234 70.1633 33.6659 70.18 33.7147L72.3135 40.3269C72.8649 42.0373 73.8155 43.5919 75.0867 44.8622C76.3578 46.1325 77.9131 47.0821 79.6238 47.6325L86.2319 49.7659C86.2808 49.7826 86.3232 49.8141 86.3532 49.8561C86.3832 49.8981 86.3994 49.9484 86.3994 50C86.3994 50.0517 86.3832 50.102 86.3532 50.144C86.3232 50.1859 86.2808 50.2175 86.2319 50.2341L79.6238 52.3719C76.1564 53.4894 73.4354 56.2059 72.3179 59.6732L70.18 66.2854C70.1093 66.5106 69.7868 66.5106 69.7162 66.2854Z" fill="#FE0000"/>
</svg>
